<svg width="300" height="340" viewBox="0 0 300 340" xmlns="http://www.w3.org/2000/svg">

  <!-- Hexagon background -->
  <polygon points="150,52 242,103 242,205 150,256 58,205 58,103" fill="#0F2B46"/>
  <!-- Inner hexagon ring -->
  <polygon points="150,70 224,113 224,197 150,240 76,197 76,113" fill="none" stroke="#B5D4F4" stroke-width="1.5"/>

  <!-- Bold RI initials -->
  <text x="150" y="186" text-anchor="middle" font-family="Georgia, serif" font-size="88" font-weight="700" fill="#ffffff" letter-spacing="-4">RI</text>

  <!-- Apostrophe s -->
  <text x="198" y="140" text-anchor="middle" font-family="Georgia, serif" font-size="28" font-weight="700" fill="#B5D4F4">'s</text>

  <!-- Mortar board cap -->
  <rect x="122" y="38" width="56" height="8" rx="2" fill="#B5D4F4"/>
  <polygon points="150,22 180,38 150,38 120,38" fill="#B5D4F4"/>
  <line x1="180" y1="38" x2="180" y2="52" stroke="#B5D4F4" stroke-width="2"/>
  <circle cx="180" cy="55" r="3" fill="#B5D4F4"/>

  <!-- ACADEMY label -->
  <text x="150" y="290" text-anchor="middle" font-family="Georgia, serif" font-size="20" font-weight="700" fill="#0F2B46" letter-spacing="6">ACADEMY</text>

  <!-- Tagline -->
  <text x="150" y="314" text-anchor="middle" font-family="Arial, sans-serif" font-size="11" fill="#888780" letter-spacing="2">HSC Excellence Center</text>

  <!-- Decorative lines -->
  <line x1="58" y1="290" x2="94" y2="290" stroke="#0F2B46" stroke-width="1"/>
  <line x1="206" y1="290" x2="242" y2="290" stroke="#0F2B46" stroke-width="1"/>

</svg>
